<svg width="199" height="86" viewBox="0 0 199 86" fill="none" xmlns="http://www.w3.org/2000/svg">
<g clip-path="url(#clip0_262_1895)">
<path d="M59.2956 30.9864L52.5687 27.5755C52.2713 27.4247 51.908 27.5436 51.7572 27.8409L47.2192 36.7906C47.0684 37.088 47.1873 37.4513 47.4847 37.6021L54.2115 41.013C54.5089 41.1638 54.8722 41.045 55.023 40.7476L59.561 31.7979C59.7118 31.5005 59.593 31.1372 59.2956 30.9864Z" fill="#E6E6E6"/>
<path d="M52.6377 30.3587L57.0098 32.5756C57.1601 32.6519 57.2191 32.836 57.1437 32.9848L57.0822 33.106C57.006 33.2564 56.8218 33.3153 56.673 33.2399L52.3009 31.023C52.1506 30.9468 52.0916 30.7626 52.1671 30.6138L52.2285 30.4926C52.3048 30.3423 52.4889 30.2833 52.6377 30.3587Z" fill="#F0F0F0"/>
<path d="M51.7745 32.0616L56.1465 34.2785C56.2969 34.3548 56.3558 34.5389 56.2804 34.6877L56.2189 34.8089C56.1427 34.9593 55.9585 35.0182 55.8097 34.9428L51.4376 32.7259C51.2873 32.6497 51.2283 32.4655 51.3038 32.3167L51.3652 32.1955C51.4415 32.0451 51.6257 31.9862 51.7745 32.0616Z" fill="#F0F0F0"/>
<path d="M50.9092 33.7635L55.2813 35.9804C55.4316 36.0567 55.4906 36.2408 55.4151 36.3896L55.3537 36.5108C55.2775 36.6612 55.0933 36.7201 54.9445 36.6447L50.5724 34.4278C50.4221 34.3516 50.3631 34.1674 50.4386 34.0186L50.5 33.8974C50.5762 33.747 50.7604 33.6881 50.9092 33.7635Z" fill="#F0F0F0"/>
<path d="M50.0469 35.468L52.0934 36.5057C52.2437 36.5819 52.3027 36.7661 52.2272 36.9149L52.1658 37.0361C52.0895 37.1864 51.9053 37.2454 51.7565 37.1699L49.7101 36.1323C49.5598 36.056 49.5008 35.8718 49.5763 35.723L49.6377 35.6019C49.7139 35.4515 49.8981 35.3926 50.0469 35.468Z" fill="#F0F0F0"/>
<path d="M7.77968 9.37691L1.08418 11.2551C0.47138 11.4271 0.113965 12.0632 0.285868 12.676L2.87675 21.9119C3.04866 22.5247 3.68478 22.8821 4.29758 22.7102L10.9931 20.832C11.6059 20.6601 11.9633 20.0239 11.7914 19.4111L9.20051 10.1752C9.02861 9.56242 8.39248 9.205 7.77968 9.37691Z" fill="#E6E6E6"/>
<path d="M7.77296 12.8896L2.9174 14.2518C2.70756 14.3103 2.48912 14.1882 2.43064 13.9784C2.37216 13.7685 2.49428 13.5501 2.70412 13.4916L7.55968 12.1294C7.76952 12.0709 7.98796 12.193 8.04644 12.4029C8.10492 12.6127 7.9828 12.8311 7.77296 12.8896Z" fill="#F0F0F0"/>
<path d="M8.31788 14.8349L3.46232 16.1972C3.25248 16.2556 3.03404 16.1335 2.97556 15.9237C2.91708 15.7138 3.0392 15.4954 3.24904 15.4369L8.1046 14.0747C8.31444 14.0162 8.53288 14.1383 8.59136 14.3482C8.64984 14.558 8.52772 14.7764 8.31788 14.8349Z" fill="#F0F0F0"/>
<path d="M8.86378 16.7819L4.00822 18.1442C3.79838 18.2027 3.57994 18.0805 3.52146 17.8707C3.46298 17.6609 3.5851 17.4424 3.79494 17.3839L8.6505 16.0217C8.86034 15.9632 9.07878 16.0853 9.13726 16.2952C9.19574 16.505 9.07362 16.7235 8.86378 16.7819Z" fill="#F0F0F0"/>
<path d="M6.75325 19.4721L4.55509 20.0896C4.34525 20.1481 4.12681 20.026 4.06833 19.8161C4.00985 19.6063 4.13197 19.3878 4.34181 19.3294L6.53998 18.7119C6.74982 18.6534 6.96826 18.7755 7.02674 18.9854C7.08522 19.1952 6.96309 19.4136 6.75325 19.4721Z" fill="#F0F0F0"/>
<path d="M5.32292 46.6756L2.10366 48.0408C1.7967 48.171 1.65338 48.5253 1.78355 48.8323L3.67115 53.2835C3.80132 53.5905 4.15569 53.7338 4.46266 53.6036L7.68192 52.2385C7.98888 52.1083 8.1322 51.7539 8.00203 51.447L6.11443 46.9957C5.98426 46.6888 5.62989 46.5454 5.32292 46.6756Z" fill="#E6E6E6"/>
<path d="M5.55988 48.4412L3.20176 49.4405C3.10028 49.4835 2.9816 49.4354 2.9386 49.3339C2.8956 49.2324 2.94376 49.1137 3.04524 49.0707L5.40336 48.0714C5.50484 48.0284 5.62352 48.0766 5.66652 48.1781C5.70952 48.2795 5.66136 48.3982 5.55988 48.4412Z" fill="#F0F0F0"/>
<path d="M5.96027 49.3855L3.60215 50.3849C3.50067 50.4279 3.38199 50.3797 3.33899 50.2782C3.29599 50.1767 3.34415 50.0581 3.44563 50.0151L5.80375 49.0157C5.90523 48.9727 6.02391 49.0209 6.06691 49.1224C6.10991 49.2239 6.06175 49.3425 5.96027 49.3855Z" fill="#F0F0F0"/>
<path d="M6.36066 50.3316L4.00254 51.3309C3.90106 51.3739 3.78238 51.3258 3.73938 51.2243C3.69638 51.1228 3.74454 51.0041 3.84602 50.9611L6.20414 49.9618C6.30562 49.9188 6.4243 49.967 6.4673 50.0684C6.5103 50.1699 6.46214 50.2886 6.36066 50.3316Z" fill="#F0F0F0"/>
<path d="M5.47203 51.8228L4.40391 52.2752C4.30243 52.3182 4.18375 52.27 4.14075 52.1685C4.09775 52.067 4.14591 51.9484 4.24739 51.9054L5.31551 51.453C5.41699 51.41 5.53567 51.4582 5.57867 51.5596C5.62167 51.6611 5.57351 51.7798 5.47203 51.8228Z" fill="#F0F0F0"/>
<path d="M54.8687 77.1419C54.8687 77.7592 43.2791 78.2599 28.9827 78.2599C14.6863 78.2599 3.09668 77.7592 3.09668 77.1419C3.09668 76.5247 14.6863 76.0239 28.9827 76.0239C43.2791 76.0239 54.8687 76.5247 54.8687 77.1419Z" fill="#F5F5F5"/>
<path d="M50.5783 12.3187H6.84046C6.13466 12.3187 5.5625 12.8909 5.5625 13.5967V75.5597C5.5625 76.2655 6.13466 76.8376 6.84046 76.8376H50.5783C51.2841 76.8376 51.8563 76.2655 51.8563 75.5597V13.5967C51.8563 12.8909 51.2841 12.3187 50.5783 12.3187Z" fill="#FF6501"/>
<path opacity="0.3" d="M50.1763 18.7532H7.24512V74.4244H50.1763V18.7532Z" fill="black"/>
<path d="M50.2535 14.6888H7.32227V72.7251H50.2535V14.6888Z" fill="white"/>
<path d="M45.3157 20.2048H12.2607V21.9902H45.3157V20.2048Z" fill="#E0E0E0"/>
<path d="M45.2366 67.5015H12.1816V69.2868H45.2366V67.5015Z" fill="#E0E0E0"/>
<path d="M37.5154 42.6853H13.542V42.8573H37.5154V42.6853Z" fill="#263238"/>
<path d="M37.5154 45.2034H13.542V45.3754H37.5154V45.2034Z" fill="#263238"/>
<path d="M45.112 46.3627H40.5781V41.8287H45.112V46.3627ZM40.7501 46.1907H44.94V42.0007H40.7501V46.1907Z" fill="#263238"/>
<path d="M43.4057 45.8278L41.0166 44.0493L41.6375 43.2168L43.2388 44.4088L45.4387 41.7841L46.2351 42.4514L43.4057 45.8278Z" fill="#FF6501"/>
<path d="M37.5154 34.7166H13.542V34.8886H37.5154V34.7166Z" fill="#263238"/>
<path d="M37.5154 37.2346H13.542V37.4066H37.5154V37.2346Z" fill="#263238"/>
<path d="M45.112 38.3938H40.5781V33.8599H45.112V38.3938ZM40.7501 38.2218H44.94V34.0319H40.7501V38.2218Z" fill="#263238"/>
<path d="M43.4057 37.8589L41.0166 36.0804L41.6375 35.2479L43.2388 36.4399L45.4387 33.8152L46.2351 34.4825L43.4057 37.8589Z" fill="#FF6501"/>
<path d="M37.5154 26.7478H13.542V26.9198H37.5154V26.7478Z" fill="#263238"/>
<path d="M37.5154 29.2659H13.542V29.4379H37.5154V29.2659Z" fill="#263238"/>
<path d="M45.112 30.425H40.5781V25.8911H45.112V30.425ZM40.7501 30.253H44.94V26.0631H40.7501V30.253Z" fill="#263238"/>
<path d="M43.4057 29.8902L41.0166 28.1117L41.6375 27.2792L43.2388 28.4712L45.4387 25.8464L46.2351 26.5138L43.4057 29.8902Z" fill="#FF6501"/>
<path d="M37.5154 50.5182H13.542V50.6902H37.5154V50.5182Z" fill="#263238"/>
<path d="M37.5154 53.0363H13.542V53.2083H37.5154V53.0363Z" fill="#263238"/>
<path d="M45.112 54.1955H40.5781V49.6616H45.112V54.1955ZM40.7501 54.0235H44.94V49.8336H40.7501V54.0235Z" fill="#263238"/>
<path d="M37.5154 58.3494H13.542V58.5214H37.5154V58.3494Z" fill="#263238"/>
<path d="M37.5154 60.8674H13.542V61.0394H37.5154V60.8674Z" fill="#263238"/>
<path d="M45.112 62.0267H40.5781V57.4928H45.112V62.0267ZM40.7501 61.8547H44.94V57.6648H40.7501V61.8547Z" fill="#263238"/>
<path d="M36.0516 11.2024H21.3662V16.7408H36.0516V11.2024Z" fill="#263238"/>
<path d="M33.3595 11.7614H24.7715L23.8135 7.54395H34.5342L33.3595 11.7614Z" fill="#263238"/>
<path opacity="0.3" d="M33.6588 7.54395C33.6484 7.56975 32.515 11.1542 32.5425 11.1542H33.5177L34.5497 7.54395H33.6588Z" fill="black"/>
<path opacity="0.3" d="M35.1036 11.2024C35.1036 11.2024 35.0331 16.7408 35.1036 16.7408H36.0513V11.2024H35.1036Z" fill="black"/>
<path d="M43.4057 53.4077L41.0166 51.6293L41.6375 50.7968L43.2388 51.9887L45.4387 49.364L46.2351 50.0314L43.4057 53.4077Z" fill="#FF6501"/>
<path d="M43.4057 61.4917L41.0166 59.7132L41.6375 58.8808L43.2388 60.0727L45.4387 57.448L46.2351 58.1154L43.4057 61.4917Z" fill="#FF6501"/>
</g>
<path d="M75.614 33.252C74.606 33.252 73.676 33.09 72.824 32.766C71.972 32.442 71.228 31.986 70.592 31.398C69.968 30.798 69.482 30.102 69.134 29.31C68.786 28.518 68.612 27.648 68.612 26.7C68.612 25.752 68.786 24.882 69.134 24.09C69.482 23.298 69.968 22.608 70.592 22.02C71.228 21.42 71.972 20.958 72.824 20.634C73.676 20.31 74.606 20.148 75.614 20.148C76.634 20.148 77.564 20.31 78.404 20.634C79.256 20.958 79.994 21.42 80.618 22.02C81.242 22.608 81.728 23.298 82.076 24.09C82.436 24.882 82.616 25.752 82.616 26.7C82.616 27.648 82.436 28.524 82.076 29.328C81.728 30.12 81.242 30.81 80.618 31.398C79.994 31.986 79.256 32.442 78.404 32.766C77.564 33.09 76.634 33.252 75.614 33.252ZM75.614 30.3C76.094 30.3 76.538 30.216 76.946 30.048C77.366 29.88 77.726 29.64 78.026 29.328C78.338 29.004 78.578 28.62 78.746 28.176C78.926 27.732 79.016 27.24 79.016 26.7C79.016 26.148 78.926 25.656 78.746 25.224C78.578 24.78 78.338 24.402 78.026 24.09C77.726 23.766 77.366 23.52 76.946 23.352C76.538 23.184 76.094 23.1 75.614 23.1C75.134 23.1 74.684 23.184 74.264 23.352C73.856 23.52 73.496 23.766 73.184 24.09C72.884 24.402 72.644 24.78 72.464 25.224C72.296 25.656 72.212 26.148 72.212 26.7C72.212 27.24 72.296 27.732 72.464 28.176C72.644 28.62 72.884 29.004 73.184 29.328C73.496 29.64 73.856 29.88 74.264 30.048C74.684 30.216 75.134 30.3 75.614 30.3ZM83.8527 33V20.4H89.6127C90.7647 20.4 91.7547 20.586 92.5827 20.958C93.4227 21.33 94.0707 21.87 94.5267 22.578C94.9827 23.274 95.2107 24.102 95.2107 25.062C95.2107 26.01 94.9827 26.832 94.5267 27.528C94.0707 28.212 93.4227 28.74 92.5827 29.112C91.7547 29.472 90.7647 29.652 89.6127 29.652H85.8327L87.4167 28.158V33H83.8527ZM91.6467 33L88.5147 28.41H92.3127L95.4627 33H91.6467ZM87.4167 28.536L85.8327 26.898H89.3967C90.1407 26.898 90.6927 26.736 91.0527 26.412C91.4247 26.088 91.6107 25.638 91.6107 25.062C91.6107 24.474 91.4247 24.018 91.0527 23.694C90.6927 23.37 90.1407 23.208 89.3967 23.208H85.8327L87.4167 21.57V28.536ZM95.9169 33V30.768L103.333 21.966L103.765 23.226H96.0789V20.4H106.933V22.632L99.5169 31.434L99.0849 30.174H107.203V33H95.9169ZM113.948 33.252C112.088 33.252 110.636 32.742 109.592 31.722C108.548 30.702 108.026 29.256 108.026 27.384V20.4H111.59V27.276C111.59 28.356 111.8 29.13 112.22 29.598C112.652 30.066 113.24 30.3 113.984 30.3C114.728 30.3 115.31 30.066 115.73 29.598C116.15 29.13 116.36 28.356 116.36 27.276V20.4H119.87V27.384C119.87 29.256 119.348 30.702 118.304 31.722C117.26 32.742 115.808 33.252 113.948 33.252ZM132.562 33.252C131.566 33.252 130.642 33.096 129.79 32.784C128.938 32.46 128.2 32.004 127.576 31.416C126.964 30.828 126.484 30.138 126.136 29.346C125.788 28.542 125.614 27.66 125.614 26.7C125.614 25.74 125.788 24.864 126.136 24.072C126.484 23.268 126.97 22.572 127.594 21.984C128.218 21.396 128.956 20.946 129.808 20.634C130.672 20.31 131.614 20.148 132.634 20.148C133.822 20.148 134.884 20.346 135.82 20.742C136.756 21.138 137.53 21.708 138.142 22.452L135.874 24.504C135.442 24.036 134.974 23.688 134.47 23.46C133.978 23.22 133.426 23.1 132.814 23.1C132.274 23.1 131.782 23.184 131.338 23.352C130.894 23.52 130.516 23.766 130.204 24.09C129.892 24.402 129.646 24.78 129.466 25.224C129.298 25.656 129.214 26.148 129.214 26.7C129.214 27.228 129.298 27.714 129.466 28.158C129.646 28.602 129.892 28.986 130.204 29.31C130.516 29.622 130.888 29.868 131.32 30.048C131.764 30.216 132.25 30.3 132.778 30.3C133.306 30.3 133.822 30.216 134.326 30.048C134.83 29.868 135.34 29.568 135.856 29.148L137.854 31.65C137.134 32.166 136.3 32.562 135.352 32.838C134.404 33.114 133.474 33.252 132.562 33.252ZM134.704 31.182V26.43H137.854V31.65L134.704 31.182ZM139.484 33V20.4H145.244C146.396 20.4 147.386 20.586 148.214 20.958C149.054 21.33 149.702 21.87 150.158 22.578C150.614 23.274 150.842 24.102 150.842 25.062C150.842 26.01 150.614 26.832 150.158 27.528C149.702 28.212 149.054 28.74 148.214 29.112C147.386 29.472 146.396 29.652 145.244 29.652H141.464L143.048 28.158V33H139.484ZM147.278 33L144.146 28.41H147.944L151.094 33H147.278ZM143.048 28.536L141.464 26.898H145.028C145.772 26.898 146.324 26.736 146.684 26.412C147.056 26.088 147.242 25.638 147.242 25.062C147.242 24.474 147.056 24.018 146.684 23.694C146.324 23.37 145.772 23.208 145.028 23.208H141.464L143.048 21.57V28.536ZM150.666 33L156.228 20.4H159.738L165.318 33H161.61L157.254 22.146H158.658L154.302 33H150.666ZM153.708 30.552L154.626 27.924H160.782L161.7 30.552H153.708ZM165.699 33V20.4H168.633L175.581 28.788H174.195V20.4H177.687V33H174.753L167.805 24.612H169.191V33H165.699ZM179.57 33V20.4H185.528C186.92 20.4 188.144 20.658 189.2 21.174C190.256 21.69 191.078 22.416 191.666 23.352C192.266 24.288 192.566 25.404 192.566 26.7C192.566 27.984 192.266 29.1 191.666 30.048C191.078 30.984 190.256 31.71 189.2 32.226C188.144 32.742 186.92 33 185.528 33H179.57ZM183.134 30.156H185.384C186.104 30.156 186.728 30.024 187.256 29.76C187.796 29.484 188.216 29.088 188.516 28.572C188.816 28.044 188.966 27.42 188.966 26.7C188.966 25.968 188.816 25.344 188.516 24.828C188.216 24.312 187.796 23.922 187.256 23.658C186.728 23.382 186.104 23.244 185.384 23.244H183.134V30.156Z" fill="#FF6501"/>
<path d="M81.825 67.0342C80.0543 67.0342 78.4117 66.7568 76.897 66.2022C75.4037 65.6262 74.1023 64.8155 72.993 63.7702C71.905 62.7248 71.0517 61.4982 70.433 60.0902C69.8143 58.6608 69.505 57.0928 69.505 55.3862C69.505 53.6795 69.8143 52.1222 70.433 50.7142C71.0517 49.2848 71.905 48.0475 72.993 47.0022C74.1023 45.9568 75.4037 45.1568 76.897 44.6022C78.4117 44.0262 80.0543 43.7382 81.825 43.7382C83.8943 43.7382 85.7397 44.1008 87.361 44.8262C89.0037 45.5515 90.369 46.5968 91.457 47.9622L87.425 51.6102C86.6997 50.7568 85.8997 50.1062 85.025 49.6582C84.1717 49.2102 83.2117 48.9862 82.145 48.9862C81.2277 48.9862 80.385 49.1355 79.617 49.4342C78.849 49.7328 78.1877 50.1702 77.633 50.7462C77.0997 51.3008 76.673 51.9728 76.353 52.7622C76.0543 53.5515 75.905 54.4262 75.905 55.3862C75.905 56.3462 76.0543 57.2208 76.353 58.0102C76.673 58.7995 77.0997 59.4822 77.633 60.0582C78.1877 60.6128 78.849 61.0395 79.617 61.3382C80.385 61.6368 81.2277 61.7862 82.145 61.7862C83.2117 61.7862 84.1717 61.5622 85.025 61.1142C85.8997 60.6662 86.6997 60.0155 87.425 59.1622L91.457 62.8102C90.369 64.1542 89.0037 65.1995 87.361 65.9462C85.7397 66.6715 83.8943 67.0342 81.825 67.0342ZM112.874 66.5862V49.2422H118.666V54.2982L117.802 52.8582C118.314 51.5568 119.146 50.5862 120.298 49.9462C121.45 49.2848 122.847 48.9542 124.49 48.9542V54.4262C124.213 54.3835 123.967 54.3622 123.754 54.3622C123.562 54.3408 123.349 54.3302 123.114 54.3302C121.877 54.3302 120.874 54.6715 120.106 55.3542C119.338 56.0155 118.954 57.1035 118.954 58.6182V66.5862H112.874ZM145.879 66.5862V49.2422H151.959V66.5862H145.879ZM148.919 47.3222C147.81 47.3222 146.914 47.0128 146.231 46.3942C145.548 45.7755 145.207 45.0075 145.207 44.0902C145.207 43.1728 145.548 42.4048 146.231 41.7862C146.914 41.1675 147.81 40.8582 148.919 40.8582C150.028 40.8582 150.924 41.1568 151.607 41.7542C152.29 42.3302 152.631 43.0768 152.631 43.9942C152.631 44.9542 152.29 45.7542 151.607 46.3942C150.946 47.0128 150.05 47.3222 148.919 47.3222ZM185.702 66.8742C184.145 66.8742 182.844 66.5542 181.798 65.9142C180.774 65.2742 180.006 64.2928 179.494 62.9702C178.982 61.6475 178.726 59.9515 178.726 57.8822C178.726 55.8555 178.993 54.1808 179.526 52.8582C180.081 51.5355 180.881 50.5542 181.926 49.9142C182.972 49.2742 184.23 48.9542 185.702 48.9542C187.281 48.9542 188.71 49.3168 189.99 50.0422C191.292 50.7675 192.316 51.8022 193.062 53.1462C193.83 54.4688 194.214 56.0475 194.214 57.8822C194.214 59.7382 193.83 61.3382 193.062 62.6822C192.316 64.0048 191.292 65.0395 189.99 65.7862C188.71 66.5115 187.281 66.8742 185.702 66.8742ZM174.79 66.5862V42.8422H180.87V52.1542L180.55 57.8822L180.582 63.6102V66.5862H174.79ZM184.422 62.0422C185.105 62.0422 185.713 61.8822 186.246 61.5622C186.801 61.2422 187.238 60.7728 187.558 60.1542C187.9 59.5142 188.07 58.7568 188.07 57.8822C188.07 57.0075 187.9 56.2715 187.558 55.6742C187.238 55.0555 186.801 54.5862 186.246 54.2662C185.713 53.9462 185.105 53.7862 184.422 53.7862C183.74 53.7862 183.121 53.9462 182.566 54.2662C182.033 54.5862 181.596 55.0555 181.254 55.6742C180.934 56.2715 180.774 57.0075 180.774 57.8822C180.774 58.7568 180.934 59.5142 181.254 60.1542C181.596 60.7728 182.033 61.2422 182.566 61.5622C183.121 61.8822 183.74 62.0422 184.422 62.0422Z" fill="#2EA047"/>
<path d="M100.462 59.9329L96.5898 57.0505L97.5962 55.7013L100.191 57.6331L103.757 53.3793L105.047 54.4609L100.462 59.9329Z" fill="#2EA047"/>
<path d="M134.565 59.9329L130.693 57.0505L131.7 55.7013L134.295 57.6331L137.86 53.3793L139.151 54.4609L134.565 59.9329Z" fill="#2EA047"/>
<path d="M162.737 59.9329L158.865 57.0505L159.872 55.7013L162.467 57.6331L166.032 53.3793L167.323 54.4609L162.737 59.9329Z" fill="#2EA047"/>
<defs>
<clipPath id="clip0_262_1895">
<rect width="59.856" height="86" fill="white"/>
</clipPath>
</defs>
</svg>
